<svg xmlns="http://www.w3.org/2000/svg" width="640" height="436" viewBox="0 0 640 436" font-family="Helvetica, Arial, sans-serif">
<rect width="640" height="436" fill="#fff"/>
<text x="320.0" y="24" text-anchor="middle" font-size="16" font-weight="bold" fill="#222">Zone 3 · Smart Farm (ESP32)</text>
<rect x="30" y="50" width="150" height="164" rx="8" fill="#16537e"/>
<text x="105.0" y="44" text-anchor="middle" font-size="12" font-weight="bold" fill="#16537e">ESP32 DevKit</text>
<circle cx="180" cy="70" r="4" fill="#ffd36b"/>
<text x="170" y="74" text-anchor="end" font-size="11" fill="#fff">3V3</text>
<circle cx="180" cy="88" r="4" fill="#ffd36b"/>
<text x="170" y="92" text-anchor="end" font-size="11" fill="#fff">5V/VIN</text>
<circle cx="180" cy="106" r="4" fill="#ffd36b"/>
<text x="170" y="110" text-anchor="end" font-size="11" fill="#fff">GND</text>
<circle cx="180" cy="124" r="4" fill="#ffd36b"/>
<text x="170" y="128" text-anchor="end" font-size="11" fill="#fff">GPIO4</text>
<circle cx="180" cy="142" r="4" fill="#ffd36b"/>
<text x="170" y="146" text-anchor="end" font-size="11" fill="#fff">GPIO34</text>
<circle cx="180" cy="160" r="4" fill="#ffd36b"/>
<text x="170" y="164" text-anchor="end" font-size="11" fill="#fff">GPIO25</text>
<circle cx="180" cy="178" r="4" fill="#ffd36b"/>
<text x="170" y="182" text-anchor="end" font-size="11" fill="#fff">GPIO26</text>
<circle cx="180" cy="196" r="4" fill="#ffd36b"/>
<text x="170" y="200" text-anchor="end" font-size="11" fill="#fff">GPIO27</text>
<rect x="420" y="50" width="190" height="64" rx="6" fill="#f3f1e4" stroke="#555"/>
<text x="515" y="64" text-anchor="middle" font-size="11" font-weight="bold" fill="#222">DHT22</text>
<circle cx="420" cy="80" r="3" fill="#555"/>
<text x="428" y="84" font-size="10" fill="#333">VCC</text>
<path d="M180 70 C 290 70, 310 80, 420 80" fill="none" stroke="#d62728" stroke-width="2" opacity=".85"/>
<circle cx="420" cy="94" r="3" fill="#555"/>
<text x="428" y="98" font-size="10" fill="#333">DATA (+10k to 3V3)</text>
<path d="M180 124 C 290 124, 310 94, 420 94" fill="none" stroke="#1f77b4" stroke-width="2" opacity=".85"/>
<circle cx="420" cy="108" r="3" fill="#555"/>
<text x="428" y="112" font-size="10" fill="#333">GND</text>
<path d="M180 106 C 290 106, 310 108, 420 108" fill="none" stroke="#222" stroke-width="2" opacity=".85"/>
<rect x="420" y="126" width="190" height="64" rx="6" fill="#f3f1e4" stroke="#555"/>
<text x="515" y="140" text-anchor="middle" font-size="11" font-weight="bold" fill="#222">Capacitive soil sensor</text>
<circle cx="420" cy="156" r="3" fill="#555"/>
<text x="428" y="160" font-size="10" fill="#333">VCC</text>
<path d="M180 70 C 290 70, 310 156, 420 156" fill="none" stroke="#d62728" stroke-width="2" opacity=".85"/>
<circle cx="420" cy="170" r="3" fill="#555"/>
<text x="428" y="174" font-size="10" fill="#333">AOUT</text>
<path d="M180 142 C 290 142, 310 170, 420 170" fill="none" stroke="#8c564b" stroke-width="2" opacity=".85"/>
<circle cx="420" cy="184" r="3" fill="#555"/>
<text x="428" y="188" font-size="10" fill="#333">GND</text>
<path d="M180 106 C 290 106, 310 184, 420 184" fill="none" stroke="#222" stroke-width="2" opacity=".85"/>
<rect x="420" y="202" width="190" height="64" rx="6" fill="#f3f1e4" stroke="#555"/>
<text x="515" y="216" text-anchor="middle" font-size="11" font-weight="bold" fill="#222">MOSFET module → fan</text>
<circle cx="420" cy="232" r="3" fill="#555"/>
<text x="428" y="236" font-size="10" fill="#333">SIG</text>
<path d="M180 160 C 290 160, 310 232, 420 232" fill="none" stroke="#1f77b4" stroke-width="2" opacity=".85"/>
<circle cx="420" cy="246" r="3" fill="#555"/>
<text x="428" y="250" font-size="10" fill="#333">GND</text>
<path d="M180 106 C 290 106, 310 246, 420 246" fill="none" stroke="#222" stroke-width="2" opacity=".85"/>
<circle cx="420" cy="260" r="3" fill="#555"/>
<text x="428" y="264" font-size="10" fill="#333">V+ from separate 5V</text>
<rect x="420" y="278" width="190" height="64" rx="6" fill="#f3f1e4" stroke="#555"/>
<text x="515" y="292" text-anchor="middle" font-size="11" font-weight="bold" fill="#222">MOSFET module → pump</text>
<circle cx="420" cy="308" r="3" fill="#555"/>
<text x="428" y="312" font-size="10" fill="#333">SIG</text>
<path d="M180 178 C 290 178, 310 308, 420 308" fill="none" stroke="#1f77b4" stroke-width="2" opacity=".85"/>
<circle cx="420" cy="322" r="3" fill="#555"/>
<text x="428" y="326" font-size="10" fill="#333">GND</text>
<path d="M180 106 C 290 106, 310 322, 420 322" fill="none" stroke="#222" stroke-width="2" opacity=".85"/>
<circle cx="420" cy="336" r="3" fill="#555"/>
<text x="428" y="340" font-size="10" fill="#333">V+ from separate 5V</text>
<rect x="420" y="354" width="190" height="50" rx="6" fill="#f3f1e4" stroke="#555"/>
<text x="515" y="368" text-anchor="middle" font-size="11" font-weight="bold" fill="#222">Manual / E-stop button</text>
<circle cx="420" cy="384" r="3" fill="#555"/>
<text x="428" y="388" font-size="10" fill="#333">leg 1</text>
<path d="M180 196 C 290 196, 310 384, 420 384" fill="none" stroke="#1f77b4" stroke-width="2" opacity=".85"/>
<circle cx="420" cy="398" r="3" fill="#555"/>
<text x="428" y="402" font-size="10" fill="#333">leg 2</text>
<path d="M180 106 C 290 106, 310 398, 420 398" fill="none" stroke="#222" stroke-width="2" opacity=".85"/>
<rect x="30" y="407" width="14" height="4" fill="#d62728"/><text x="48" y="412" font-size="10" fill="#333">power</text>
<rect x="110" y="407" width="14" height="4" fill="#222"/><text x="128" y="412" font-size="10" fill="#333">ground</text>
<rect x="190" y="407" width="14" height="4" fill="#1f77b4"/><text x="208" y="412" font-size="10" fill="#333">digital</text>
<rect x="270" y="407" width="14" height="4" fill="#8c564b"/><text x="288" y="412" font-size="10" fill="#333">analog</text>
<rect x="350" y="407" width="14" height="4" fill="#ff7f0e"/><text x="368" y="412" font-size="10" fill="#333">PWM</text>
<rect x="430" y="407" width="14" height="4" fill="#2ca02c"/><text x="448" y="412" font-size="10" fill="#333">I²C</text>
<rect x="510" y="407" width="14" height="4" fill="#9467bd"/><text x="528" y="412" font-size="10" fill="#333">SPI</text>
</svg>
