<svg width="1000" height="680" viewBox="0 0 1000 680" xmlns="http://www.w3.org/2000/svg">
    <defs>
      <pattern id="g" width="20" height="20" patternUnits="userSpaceOnUse"><path d="M20 0H0V20" fill="none" stroke="#24594a" stroke-width="1"/></pattern>
    </defs>
    <rect x="0" y="0" width="1000" height="680" fill="url(#g)"/>

    <!-- Wi-Fi / MQTT links to control center -->
    <g stroke="#ffd36b" stroke-width="2" stroke-dasharray="6 7" fill="none" opacity=".85">
      <path d="M190 225 C 300 470, 560 540, 700 560"/>
      <path d="M260 540 C 420 600, 560 600, 700 585"/>
      <path d="M500 205 C 520 380, 640 470, 720 520"/>
      <path d="M830 265 C 840 360, 830 420, 820 450"/>
      <path d="M330 345 C 480 420, 620 470, 700 530"/>
      <path d="M620 330 C 680 400, 720 440, 760 460"/>
    </g>

    <!-- ROAD -->
    <rect x="20" y="290" width="960" height="90" fill="#3a3f3c"/>
    <line x1="20" y1="335" x2="980" y2="335" stroke="#e9e4d2" stroke-width="3" stroke-dasharray="22 18"/>
    <text x="34" y="306" fill="#b9d3c6" font-size="12" font-family="IBM Plex Mono, monospace">ROAD · gate → farm</text>

    <!-- ZONE 1 GATE -->
    <rect x="30" y="30" width="300" height="230" fill="#e9e4d2" stroke="#c9c1a6" stroke-width="3" rx="4"/>
    <text x="48" y="58" font-family="Chakra Petch, sans-serif" font-weight="700" font-size="20" fill="#174638">1 · Smart Gate</text>
    <text x="48" y="78" font-size="12" fill="#4b5a52">RFID · servo lock · reed switch · buzzer</text>
    <!-- fence -->
    <g fill="#8a7a55"><rect x="48" y="200" width="90" height="10"/><rect x="220" y="200" width="92" height="10"/>
      <rect x="54" y="170" width="8" height="40"/><rect x="84" y="170" width="8" height="40"/><rect x="114" y="170" width="8" height="40"/>
      <rect x="230" y="170" width="8" height="40"/><rect x="260" y="170" width="8" height="40"/><rect x="290" y="170" width="8" height="40"/></g>
    <!-- door ajar -->
    <rect x="140" y="140" width="78" height="72" fill="#b98b52" stroke="#6b4d2a" stroke-width="3"/>
    <circle cx="206" cy="178" r="4" fill="#3a3f3c"/>
    <!-- servo -->
    <rect x="148" y="150" width="22" height="14" fill="#2f6fd0"/><text x="150" y="146" font-size="10" fill="#174638">servo</text>
    <!-- RFID reader -->
    <rect x="248" y="104" width="46" height="56" rx="4" fill="#2f6fd0"/>
    <path d="M262 122 a10 10 0 0 1 18 0 M258 116 a16 16 0 0 1 26 0" stroke="#e9e4d2" stroke-width="2" fill="none"/>
    <circle cx="263" cy="146" r="5" fill="#7ee08a"/><circle cx="280" cy="146" r="5" fill="#ff6b5a"/>
    <text x="246" y="98" font-size="10" fill="#174638">RFID</text>
    <!-- card -->
    <rect x="300" y="116" width="24" height="16" rx="2" fill="#ffd36b" transform="rotate(-14 312 124)"/>
    <!-- estop -->
    <circle cx="70" cy="124" r="14" fill="#ff6b5a" stroke="#174638" stroke-width="3"/><text x="50" y="154" font-size="10" fill="#174638">E-stop</text>

    <!-- ZONE 2 LIGHTS & SECURITY -->
    <rect x="30" y="420" width="300" height="230" fill="#e9e4d2" stroke="#c9c1a6" stroke-width="3" rx="4"/>
    <text x="48" y="448" font-family="Chakra Petch, sans-serif" font-weight="700" font-size="20" fill="#174638">2 · Lights &amp; Security</text>
    <text x="48" y="468" font-size="12" fill="#4b5a52">light sensor · motion sensor · siren</text>
    <g>
      <rect x="70" y="510" width="6" height="110" fill="#3a3f3c"/><circle cx="73" cy="506" r="12" fill="#ffd36b"/><circle cx="73" cy="506" r="26" fill="#ffd36b" opacity=".25"/>
      <rect x="140" y="510" width="6" height="110" fill="#3a3f3c"/><circle cx="143" cy="506" r="12" fill="#ffd36b"/><circle cx="143" cy="506" r="26" fill="#ffd36b" opacity=".25"/>
    </g>
    <circle cx="220" cy="540" r="18" fill="#f3f1e4" stroke="#3a3f3c" stroke-width="3"/><text x="203" y="575" font-size="10" fill="#174638">PIR</text>
    <path d="M272 520 l22 -14 v52 l-22 -14 z" fill="#ff6b5a"/><rect x="258" y="520" width="14" height="24" fill="#ff6b5a"/>
    <text x="252" y="575" font-size="10" fill="#174638">siren</text>
    <rect x="196" y="600" width="26" height="20" fill="#2f6fd0"/><text x="230" y="615" font-size="10" fill="#174638">light sensor</text>

    <!-- ZONE 4 WATCHTOWER -->
    <rect x="410" y="30" width="180" height="200" fill="#e9e4d2" stroke="#c9c1a6" stroke-width="3" rx="4"/>
    <text x="424" y="58" font-family="Chakra Petch, sans-serif" font-weight="700" font-size="20" fill="#174638">4 · Watchtower</text>
    <text x="424" y="78" font-size="12" fill="#4b5a52">pan/tilt camera · vision</text>
    <path d="M478 214 L492 110 L508 110 L522 214 Z" fill="#8a7a55"/>
    <rect x="482" y="92" width="36" height="22" rx="3" fill="#3a3f3c"/><circle cx="500" cy="103" r="7" fill="#7ab8ff"/>
    <path d="M482 103 L400 175 L380 120 Z" fill="#ffd36b" opacity=".35"/>
    <text x="530" y="140" font-size="10" fill="#174638">aims at</text><text x="530" y="152" font-size="10" fill="#174638">GATE · FARM</text><text x="530" y="164" font-size="10" fill="#174638">· ROAD</text>

    <!-- ZONE 3 FARM -->
    <rect x="670" y="30" width="300" height="240" fill="#e9e4d2" stroke="#c9c1a6" stroke-width="3" rx="4"/>
    <text x="688" y="58" font-family="Chakra Petch, sans-serif" font-weight="700" font-size="20" fill="#174638">3 · Smart Farm</text>
    <text x="688" y="78" font-size="12" fill="#4b5a52">temp/humidity · soil · fan · pump</text>
    <path d="M700 240 V150 L780 110 L860 150 V240 Z" fill="#cfe9f2" stroke="#7aa9b8" stroke-width="3"/>
    <g fill="#3d8a4f"><ellipse cx="740" cy="210" rx="16" ry="22"/><ellipse cx="780" cy="200" rx="18" ry="30"/><ellipse cx="822" cy="210" rx="16" ry="22"/></g>
    <rect x="720" y="228" width="120" height="12" fill="#7a5a36"/>
    <g transform="translate(910 150)"><circle r="26" fill="#f3f1e4" stroke="#3a3f3c" stroke-width="3"/>
      <path d="M0 0 L0 -20 A20 20 0 0 1 17 -10 Z M0 0 L17 10 A20 20 0 0 1 0 20 Z M0 0 L-17 10 A20 20 0 0 1 -17 -10 Z" fill="#7ab8ff"/></g>
    <text x="893" y="194" font-size="10" fill="#174638">fan</text>
    <path d="M900 212 q0 -14 10 -24 q10 10 10 24 a10 10 0 0 1 -20 0z" fill="#7ab8ff"/><text x="926" y="222" font-size="10" fill="#174638">pump</text>
    <rect x="862" y="232" width="10" height="26" fill="#2f6fd0"/><text x="876" y="252" font-size="10" fill="#174638">soil</text>

    <!-- ZONE 5 ROVER on road -->
    <g transform="translate(330 312)">
      <rect x="0" y="0" width="70" height="44" rx="6" fill="#ffd36b" stroke="#174638" stroke-width="3"/>
      <rect x="-8" y="-6" width="16" height="14" rx="2" fill="#174638"/><rect x="-8" y="36" width="16" height="14" rx="2" fill="#174638"/>
      <rect x="54" y="-6" width="16" height="14" rx="2" fill="#174638"/><rect x="54" y="36" width="16" height="14" rx="2" fill="#174638"/>
      <rect x="66" y="14" width="10" height="16" fill="#2f6fd0"/>
      <rect x="18" y="12" width="24" height="18" rx="2" fill="#f3f1e4"/>
    </g>
    <text x="300" y="400" font-family="Chakra Petch, sans-serif" font-weight="700" font-size="18" fill="#f3f1e4">5 · Delivery Rover</text>
    <text x="300" y="418" font-size="12" fill="#b9d3c6">motors · IMU · obstacle stop · RFID tag</text>

    <!-- FINAL DOG on road -->
    <g transform="translate(600 300)">
      <rect x="10" y="12" width="70" height="30" rx="10" fill="#f3f1e4" stroke="#174638" stroke-width="3"/>
      <rect x="74" y="0" width="28" height="24" rx="6" fill="#f3f1e4" stroke="#174638" stroke-width="3"/>
      <circle cx="94" cy="11" r="4" fill="#2f6fd0"/>
      <g stroke="#174638" stroke-width="5" stroke-linecap="round"><path d="M20 42 l-6 22"/><path d="M36 42 l4 22"/><path d="M60 42 l-4 22"/><path d="M74 42 l6 22"/></g>
      <rect x="76" y="24" width="18" height="6" fill="#ffd36b"/>
    </g>
    <text x="580" y="400" font-family="Chakra Petch, sans-serif" font-weight="700" font-size="18" fill="#ffd36b">★ Robot Dog Patrol</text>
    <text x="580" y="418" font-size="12" fill="#b9d3c6">Freenove dog · collar tag opens the gate</text>

    <!-- ZONE 6 CONTROL CENTER -->
    <rect x="670" y="440" width="300" height="210" fill="#e9e4d2" stroke="#c9c1a6" stroke-width="3" rx="4"/>
    <text x="688" y="468" font-family="Chakra Petch, sans-serif" font-weight="700" font-size="20" fill="#174638">3+6 · Control Center</text>
    <text x="688" y="488" font-size="12" fill="#4b5a52">Raspberry Pi hub · MQTT → ROS 2</text>
    <rect x="690" y="505" width="70" height="48" rx="4" fill="#3d8a4f"/><g fill="#ffd36b"><rect x="698" y="513" width="14" height="10"/><rect x="738" y="513" width="14" height="10"/></g>
    <text x="702" y="546" font-size="11" fill="#f3f1e4" font-family="IBM Plex Mono, monospace">Pi hub</text>
    <rect x="776" y="502" width="120" height="78" rx="4" fill="#174638"/>
    <polyline points="784,566 800,552 816,560 832,536 848,544 864,524 886,532" fill="none" stroke="#7ee08a" stroke-width="2.5"/>
    <text x="784" y="518" font-size="10" fill="#b9d3c6" font-family="IBM Plex Mono, monospace">dashboard</text>
    <rect x="690" y="566" width="74" height="54" rx="4" fill="#3a3f3c"/><text x="696" y="586" font-size="10" fill="#7ab8ff" font-family="IBM Plex Mono, monospace">Gazebo</text><text x="696" y="600" font-size="10" fill="#7ab8ff" font-family="IBM Plex Mono, monospace">twin</text>
    <rect x="776" y="592" width="70" height="40" rx="3" fill="#f3f1e4" stroke="#3a3f3c" stroke-width="2"/>
    <g stroke="#3a3f3c" stroke-width="2"><line x1="784" y1="604" x2="838" y2="604"/><line x1="784" y1="614" x2="838" y2="614"/><line x1="784" y1="624" x2="820" y2="624"/></g>
    <text x="780" y="645" font-size="10" fill="#174638">CSV log</text>
    <circle cx="930" cy="610" r="22" fill="#ff6b5a" stroke="#174638" stroke-width="4"/><text x="903" y="648" font-size="10" fill="#174638">world E-stop</text>

    <!-- link label -->
    <text x="430" y="610" font-size="12" fill="#ffd36b" font-family="IBM Plex Mono, monospace">- - - Wi‑Fi / MQTT: world/*</text>
  </svg>